<svg width="166" height="34" viewBox="0 0 166 34" fill="none" xmlns="http://www.w3.org/2000/svg">
<g style="mix-blend-mode:color-dodge" opacity="0.3">
<path d="M1.20086 10.8363C0.426362 12.7491 0 14.8237 0 16.9962C0 18.171 0.125171 19.3156 0.359865 20.4226L32.9707 10.81L1.20086 10.8326V10.8363Z" fill="#575756"/>
<path d="M4.51013 28.3447C7.74501 31.8162 12.435 34 17.6609 34H40.6297L46.368 27.6857L4.51013 28.3447Z" fill="#575756"/>
<path d="M72.1686 0L62.5422 6.12226L100.704 0H72.1686Z" fill="#575756"/>
<path d="M149.532 0L96.2092 34H112.251L165.573 0H149.532Z" fill="#575756"/>
<path d="M17.6608 0C10.3891 0 4.14627 4.23212 1.43945 10.2753L40.876 0H17.6608Z" fill="#575756"/>
</g>
</svg>
