<svg width="108" height="76" viewBox="0 0 108 76" fill="none" xmlns="http://www.w3.org/2000/svg">
<g style="mix-blend-mode:color-dodge" opacity="0.5">
<path d="M16.1916 11.0203L39.3903 9.73468L13.0181 6.94341L7.99731 14.547L14.2979 13.9274L16.1916 11.0203Z" fill="#575756"/>
<path d="M94.15 13.9274L100.451 14.547L95.4356 6.94341L69.0576 9.73468L92.2564 11.0203L94.15 13.9274Z" fill="#575756"/>
<path d="M48.6385 14.4138L54.2384 5.29298L59.7978 14.3327L79.1745 13.8463L62.2995 11.9005L54.1573 0L46.2642 11.9874L29.146 13.9274L48.6385 14.4138Z" fill="#575756"/>
<path d="M19.8226 28.7465C19.5504 27.9184 19.2377 27.0208 18.8902 26.0537C18.4849 24.9476 18.1258 23.8126 17.8015 22.6544C17.7957 22.6254 17.7668 22.6081 17.7378 22.6197C17.7262 22.6197 17.7147 22.6312 17.7089 22.637C17.6104 22.7644 17.622 22.944 17.5699 23.1119C17.2456 24.1253 17.0661 24.7276 16.7649 25.5499C16.3017 26.8008 15.9484 27.7736 15.6994 28.4744C15.5546 28.8913 15.4041 29.2909 15.2477 29.6673C15.2419 29.6905 15.2477 29.7136 15.2709 29.7194C15.2766 29.7194 15.2882 29.7194 15.294 29.7194C15.9484 29.5746 16.707 29.621 17.2745 29.5283C17.8652 29.4299 18.2822 29.4646 19.0176 29.3778C19.3072 29.343 19.6257 29.3314 19.9732 29.343C20.0137 29.343 20.0426 29.3141 20.0484 29.2735V29.2561C20.0195 29.0998 19.8921 28.9434 19.8284 28.7523L19.8226 28.7465Z" fill="#575756"/>
<path d="M39.5933 23.0366C39.4543 22.8339 39.2979 22.7297 39.1358 22.7297C38.5799 22.7297 36.8889 22.7239 34.0629 22.7181C34.0397 22.7181 34.0281 22.7355 34.0223 22.7528C34.0223 22.7644 34.0223 22.7702 34.0339 22.7818C34.3235 23.0887 34.4682 23.2972 34.474 23.7605C34.4856 24.6175 34.4914 25.602 34.4798 26.7139C34.4798 26.7428 34.503 26.766 34.5319 26.766C36.275 26.766 37.7286 26.766 38.8984 26.7602C39.2864 26.7602 39.6049 26.6154 39.7091 26.2564C39.7207 26.2217 39.7265 26.1869 39.7265 26.1464C39.7439 25.2256 39.7439 24.5017 39.7265 23.9805C39.7149 23.4767 39.6686 23.164 39.5875 23.0424L39.5933 23.0366Z" fill="#575756"/>
<path d="M91.3124 24.6407C91.0749 23.9921 90.907 23.5172 90.8085 23.2045C90.7564 23.0482 90.7275 22.8976 90.7159 22.747C90.7159 22.7123 90.6869 22.6891 90.6522 22.6891H90.6059C90.5537 22.6833 90.5132 22.7181 90.5074 22.7702C90.5074 22.886 90.4842 23.0424 90.4321 23.2509C90.2063 24.1311 89.992 24.8781 89.7835 25.4862C89.384 26.6502 88.9786 27.8721 88.5674 29.1519C88.5501 29.204 88.579 29.2561 88.6311 29.2735C88.6369 29.2735 88.6485 29.2735 88.6543 29.2735L93.1307 29.6325C93.1307 29.6325 93.1828 29.6152 93.1828 29.5862C93.1828 29.5804 93.1828 29.5688 93.1828 29.5631C92.5285 27.8952 91.903 26.2564 91.3182 24.6349L91.3124 24.6407Z" fill="#575756"/>
<path d="M105.657 38.7823L102.796 30.9008L99.3678 21.4904C99.3504 21.4499 99.362 21.4093 99.3909 21.3746C99.7268 20.9982 100.08 20.5754 100.451 20.1064C100.682 19.8168 101.539 18.8902 103.028 17.3267C103.138 17.2109 103.282 17.1298 103.381 17.0082C103.387 17.0024 103.387 16.9908 103.387 16.985C103.387 16.9618 103.369 16.9445 103.346 16.9445L91.9958 16.9271H88.3591L63.2609 16.9329H13.3714L5.40879 16.9503L4.48803 16.9676L4.25059 16.9503C4.25059 16.9503 4.22743 16.9503 4.22164 16.9618C4.20427 16.9792 4.21006 17.0024 4.22164 17.014L8.72125 21.4151C8.76178 21.4557 8.77916 21.5194 8.75599 21.5715L5.66939 30.0263L2.9592 37.3693L0 45.2451C0 45.2451 0 45.2683 0 45.2798C0.005791 45.3146 0.0405364 45.332 0.0694914 45.3262C3.67728 44.4865 7.31403 43.7452 10.9682 43.0966C14.0084 42.5465 17.0545 42.0485 20.1064 41.6025L26.8934 40.6876C33.582 39.8652 40.9829 39.0082 46.9766 38.6028C48.3143 38.5333 49.6289 38.4812 50.9029 38.4465C43.502 40.3112 35.3656 42.3728 33.7905 42.7723L18.259 46.6581L18.8613 47.8684L34.0627 47.8568L4.26218 56.9892L4.79495 58.2111L52.0379 57.4351L42.5059 68.3396L43.531 69.492L48.1232 69.2893C48.1232 69.2893 49.2582 69.214 51.0303 69.214C53.6015 69.214 57.5104 69.3646 61.5294 70.0943C69.9032 71.6115 78.2017 75.0572 78.2885 75.0919L79.1398 75.4452L79.9506 75.005L86.9635 71.1772L89.2046 69.9553L90.994 65.7452L89.4652 63.3767L85.4462 57.1398L86.1064 54.6265L86.3091 53.8505L85.8979 53.1614C85.8053 53.0108 83.6278 49.3625 80.327 46.0385C77.7673 43.4615 74.3565 41.3941 72.7234 40.4791C72.6481 40.1838 72.5381 39.8247 72.3817 39.4367C74.4954 39.7031 75.6768 39.9116 75.6768 39.9116H75.7057C76.1169 39.9753 76.5802 39.9926 77.0319 40.0621C77.75 40.1722 78.7808 40.3054 80.1127 40.4675C83.929 40.9308 86.9519 41.342 89.1814 41.7068C90.2933 41.8863 91.4457 42.0716 92.6328 42.2685C97.7579 43.1082 102.854 44.1332 107.927 45.3088C107.938 45.3088 107.95 45.3088 107.962 45.3088C107.991 45.2972 108.008 45.2625 107.996 45.2335L105.645 38.7765L105.657 38.7823ZM27.8316 35.9447C27.8316 35.9447 27.8026 35.9447 27.791 35.9505C27.791 35.9505 24.5538 35.9216 22.4112 36.3038C22.2027 36.3327 22.2432 36.3038 22.2085 36.2227C22.2085 36.2169 22.2085 36.2111 22.2027 36.2053L21.2009 32.7944C21.2009 32.7944 21.1719 32.7539 21.1487 32.7597C19.9616 32.8871 19.3188 32.9566 19.2087 32.9682C17.1356 33.1998 15.8905 33.3272 15.4851 33.3446C15.4041 33.3446 15.1029 33.3851 14.5817 33.4488C14.1648 33.5009 13.6262 33.582 13.0355 33.6573C13.0124 33.6573 12.995 33.6747 12.995 33.7036C12.995 33.7152 13.0008 33.7326 13.0124 33.7384L13.6204 34.0279C13.6899 34.0742 13.7131 34.1611 13.6899 34.2364L12.5549 37.2593C12.5375 37.3114 12.4912 37.3462 12.4333 37.3577C10.3311 37.4909 8.4954 37.7979 6.13846 38.4291C6.12109 38.4349 6.10371 38.4291 6.09792 38.4117C6.09792 38.4059 6.09792 38.3943 6.09792 38.3885C6.14425 38.3133 6.179 38.2496 6.20216 38.2148C6.52067 37.5257 7.18084 36.0142 8.18847 33.6747C9.69993 30.1653 11.2751 26.5112 12.9081 22.7123C13.1224 22.2143 13.3193 21.7163 13.5046 21.2182C13.522 21.1777 13.5046 21.1314 13.4814 21.1024C13.4062 21.0155 13.2961 20.9345 13.1514 20.8534C13.1398 20.8476 13.1282 20.836 13.1166 20.8302L11.2056 19.2319C11.2056 19.2319 11.194 19.2087 11.2056 19.1972C11.2056 19.1914 11.2172 19.1856 11.223 19.1914H22.3475C22.3938 19.1914 22.4285 19.2203 22.4459 19.2609L27.8721 35.9042C27.8721 35.9042 27.8721 35.9563 27.8431 35.9679L27.8316 35.9447ZM45.4941 35.4525C45.4941 35.4525 45.4594 35.4699 45.4362 35.4699C45.3899 35.4699 45.3435 35.4815 45.2277 35.4873C43.6004 35.4409 41.8168 35.4988 40.01 35.5857C39.9637 35.5857 39.9232 35.5683 39.9 35.5336L36.4312 30.0032C36.3617 29.8989 36.2517 29.8352 36.1243 29.8352H34.5317C34.5317 29.8352 34.4854 29.8584 34.4854 29.8816V35.9042C34.4854 35.9042 34.4738 35.9216 34.4565 35.9216H34.4333L29.1229 35.8579C29.1229 35.8579 29.0824 35.8289 29.0882 35.8C29.0882 35.7942 29.0882 35.7884 29.094 35.7826C29.1693 35.6784 29.2098 35.1687 29.2098 34.7518C29.2214 29.98 29.2214 25.4514 29.2156 21.1661C29.2156 21.1372 29.204 21.1024 29.1751 21.085L26.8587 19.1914C26.8587 19.1914 26.8529 19.1798 26.8587 19.1682C26.8587 19.1682 26.8645 19.1624 26.876 19.1624H41.7242C41.7589 19.1624 41.7879 19.174 41.8168 19.1972L44.7239 21.5715C44.7239 21.5715 44.7644 21.6236 44.7644 21.6583V27.6984C44.7644 27.6984 44.7529 27.7447 44.7355 27.7563L41.95 29.8874C41.9095 29.9221 41.9037 29.98 41.9326 30.0205L45.5115 35.3598C45.5115 35.3598 45.5288 35.4236 45.4999 35.4409L45.4941 35.4525ZM47.4109 34.717V21.1429C47.4109 21.1082 47.3936 21.0792 47.3704 21.0561L45.2161 19.2261C45.2161 19.2261 45.1988 19.1972 45.2161 19.1856C45.2219 19.1798 45.2335 19.174 45.2393 19.174H61.0893C61.1298 19.174 61.1588 19.203 61.1588 19.2435V22.9266C61.1588 22.9671 61.1298 22.9961 61.0893 23.0019C61.0719 23.0019 61.0545 22.9961 61.0371 22.9787C60.6202 22.5791 60.1048 22.4749 59.5199 22.4749C57.1282 22.4749 54.7829 22.4749 52.478 22.4749C52.2638 22.4749 52.119 22.4807 52.0379 22.498C52.0206 22.498 52.0148 22.5154 52.0148 22.5328C52.0148 22.5386 52.0206 22.5502 52.0321 22.5502C52.4086 22.7644 52.6286 23.025 52.7039 23.3261C52.7039 23.3377 52.7039 23.3493 52.7039 23.3667L52.7271 25.4746C52.7271 25.5036 52.756 25.5325 52.785 25.5325H60.2727C60.3075 25.5325 60.3306 25.5557 60.3306 25.5904C60.3306 25.5904 60.3306 25.602 60.3306 25.6078L59.5257 28.5612C59.5141 28.596 59.4852 28.6249 59.4446 28.6249H52.7676C52.7386 28.6249 52.7155 28.6481 52.7155 28.677V31.3351C52.7155 31.3814 52.756 31.422 52.8081 31.422H61.8653C61.9 31.422 61.929 31.4509 61.929 31.4857V34.8734C61.929 34.9139 61.9 34.9371 61.8537 34.9371H61.8073L47.4746 34.7634C47.4457 34.7634 47.4167 34.746 47.4167 34.717H47.4109ZM81.1493 35.5278C81.1493 35.5799 81.1088 35.6204 81.0566 35.6204C81.0566 35.6204 81.0335 35.6204 81.0045 35.6204L75.7695 35.2382C75.7289 35.2382 75.6884 35.2324 75.6594 35.2093C75.5783 35.1572 75.422 34.9892 75.1961 34.6939C72.5844 31.3119 70.934 29.1577 70.2333 28.2311C69.7121 27.5362 69.1851 26.8471 68.6465 26.1637C68.6349 26.1464 68.6176 26.1464 68.6002 26.1579C68.5886 26.1637 68.5828 26.1753 68.5886 26.1869C68.6755 27.3335 68.716 28.3122 68.7218 29.1229C68.7218 29.2156 68.7334 30.9413 68.7508 35.0413C68.7508 35.0645 68.7276 35.0877 68.7044 35.0877C68.6871 35.0877 68.6755 35.0819 68.6697 35.0703C68.6697 35.0703 66.527 34.8966 63.8689 34.7981C63.7821 34.7981 63.7358 34.7981 63.7242 34.7692C63.7242 34.7634 63.7242 34.7576 63.7242 34.7518V21.0619C63.7242 20.9345 63.6663 20.8129 63.5678 20.7318L61.7668 19.2609C61.7668 19.2609 61.7436 19.2145 61.761 19.1972C61.7668 19.1856 61.7842 19.1798 61.7958 19.1798H69.2256C69.2777 19.1798 69.3299 19.203 69.3646 19.2493C70.7718 21.0908 73.0245 24.0616 76.1285 28.1616C76.1574 28.2022 76.1922 28.2311 76.2269 28.2485C76.2559 28.2659 76.2964 28.2485 76.308 28.2195C76.3138 28.208 76.3138 28.1906 76.308 28.1732C76.2559 28.0053 76.2269 27.8373 76.2154 27.6694C76.1227 26.1232 76.088 24.6407 76.0995 23.2219C76.0995 23.0192 76.0937 22.666 76.0706 22.1622C76.0474 21.5773 76.0416 21.2414 76.0474 21.1603C76.0474 21.1256 76.0358 21.085 76.0069 21.0619L73.7658 19.2319C73.7658 19.2319 73.7484 19.203 73.7658 19.1914C73.7716 19.1856 73.7831 19.1798 73.7889 19.1798H81.1088C81.1088 19.1798 81.1493 19.1972 81.1493 19.2203V35.5394V35.5278ZM102.617 38.3364C102.617 38.3364 102.593 38.3422 102.582 38.3364C102.582 38.3364 99.5299 37.2246 96.2928 37.1956C96.1885 37.1956 96.1538 37.1724 96.1306 37.1087L94.7408 33.5183C94.7292 33.4894 94.7002 33.472 94.6713 33.472C94.2775 33.5009 93.8837 33.362 93.5247 33.3735C93.1656 33.3851 92.905 33.2693 92.5749 33.2635C92.3317 33.2635 92.0769 33.2288 91.8047 33.1709C91.7352 33.1535 91.6657 33.1477 91.5905 33.1477C91.1735 33.1477 90.9361 33.1361 90.8724 33.1187C90.4033 32.9855 89.801 33.0492 89.3378 32.9566C89.1293 32.9103 88.8745 32.8929 88.5849 32.8929C88.2549 32.8929 87.7626 32.7365 87.3688 32.7713C87.3457 32.7713 87.3283 32.7944 87.3283 32.8176C87.3283 32.8292 87.3283 32.835 87.3399 32.8408C87.5368 33.0608 87.8669 33.0956 88.0058 33.2577C88.0811 33.3446 88.0753 33.4257 87.9943 33.5067C87.9827 33.5183 87.9711 33.5357 87.9653 33.5531L87.1835 36.3501C87.1777 36.3791 87.1546 36.3906 87.114 36.3906H87.0966C87.0966 36.3906 84.2359 35.8637 82.0179 35.7421C81.9832 35.7421 81.9716 35.7363 81.96 35.7131C81.96 35.7073 81.96 35.6957 81.96 35.6899L86.3496 21.2356C86.3786 21.1487 86.3496 21.0503 86.2743 20.9924L84.2185 19.313C84.1896 19.2898 84.1838 19.2435 84.2069 19.2145C84.2185 19.1972 84.2417 19.1914 84.2591 19.1914H97.4046C97.4046 19.1914 97.451 19.2145 97.451 19.2377C97.451 19.2493 97.4452 19.2609 97.4336 19.2724L95.3083 21.0445C95.2504 21.0908 95.233 21.1719 95.262 21.2414C99.4083 30.9587 101.644 36.1706 101.956 36.8713C102.223 37.4678 102.449 37.9368 102.622 38.2901C102.634 38.3133 102.622 38.3422 102.599 38.3538L102.617 38.3364Z" fill="#575756"/>
</g>
</svg>
