<svg width="639" height="422" viewBox="0 0 639 422" fill="none" xmlns="http://www.w3.org/2000/svg">
<g clip-path="url(#clip0_3124_530)">
<path d="M544.244 99.9059L611.388 100.018C611.388 100.018 611.613 100.131 611.613 100.243C611.613 100.243 611.613 100.356 611.613 100.412C611.051 101.143 610.151 101.649 609.533 102.323C600.76 111.544 595.643 116.997 594.293 118.74C592.1 121.495 590.019 124.025 588.051 126.218C587.882 126.386 587.826 126.667 587.938 126.892L608.183 182.439L625.11 228.935L639 266.997C639 266.997 639 267.39 638.775 267.447C638.719 267.447 638.663 267.447 638.606 267.447C608.577 260.475 578.435 254.459 548.124 249.512C541.095 248.387 534.29 247.263 527.711 246.195C514.495 244.058 496.613 241.641 474.062 238.886C466.133 237.93 460.06 237.143 455.842 236.468C453.199 236.075 450.443 235.962 448.025 235.625H447.857C447.857 235.625 437.341 233.714 418.952 231.69C419.627 233.826 419.964 235.681 420.133 236.862C420.245 237.705 420.751 238.436 421.539 238.886C427.275 241.978 451.624 255.471 468.607 272.619C487.784 291.959 500.605 313.492 500.661 313.605L495.375 333.844L522.537 376.011L494.363 381.633L511.571 398.893L469.001 422.112C469.001 422.112 417.658 400.58 364.91 391.022C321.665 383.151 280.726 385.962 280.726 385.962L342.809 312.705L65.5702 324.736L307.775 255.809H197.442C197.442 255.809 260.819 239.786 312.555 226.798C301.533 226.967 290.005 227.304 278.139 227.923C242.655 230.284 198.904 235.344 159.314 240.235L119.162 245.633C101.111 248.275 83.0593 251.199 65.1203 254.459C43.4697 258.282 21.9879 262.668 0.618561 267.615C0.449855 267.615 0.224915 267.559 0.224915 267.334C0.224915 267.278 0.224915 267.222 0.224915 267.109L17.714 220.614L33.7411 177.267L52.0175 127.342C52.13 127.005 52.0175 126.667 51.7925 126.386L25.1933 100.412C25.1933 100.412 25.0808 100.187 25.1933 100.075C25.1933 100.075 25.3058 100.018 25.362 100.018L26.7679 100.131L32.2227 100.018H79.3478L374.526 99.9059H522.987H544.469H544.244ZM458.71 311.524C445.382 304.834 436.441 318.271 432.448 323.5C426.206 331.877 419.852 343.121 417.04 347.787C413.666 353.466 415.072 359.819 415.353 360.775C417.49 368.365 424.744 370.894 431.605 371.457C448.756 372.918 464.783 365.778 475.468 352.96C479.236 348.406 481.373 343.627 483.622 336.543C484.297 334.407 486.153 328.56 484.972 326.423C483.566 324.006 468.326 316.303 458.654 311.468L458.71 311.524ZM393.815 220.445C391.003 219.714 387.966 219.433 385.042 219.658C384.423 219.658 383.861 219.771 383.243 219.827C382.062 219.995 380.881 220.22 379.756 220.558L373.795 222.019C373.345 222.132 372.895 222.301 372.389 222.413C372.277 222.413 372.108 222.525 371.995 222.582C371.658 222.694 371.321 222.807 371.039 222.919C370.871 222.919 370.758 223.031 370.59 223.088C370.252 223.2 369.971 223.369 369.634 223.481C369.521 223.481 369.409 223.594 369.296 223.65C368.959 223.819 368.565 223.987 368.228 224.156C368.171 224.156 368.059 224.212 368.003 224.268C366.203 225.168 364.572 226.236 363.054 227.473C355.575 233.32 351.076 242.484 351.02 252.548V253.841L351.357 267.728C351.357 269.752 353.438 271.157 355.35 270.37L406.58 253.897C408.605 253.11 410.067 251.311 410.348 249.175C410.685 246.926 410.741 244.115 410.685 242.091C410.685 238.268 409.673 234.444 407.761 231.127C407.649 230.902 407.536 230.734 407.367 230.509C407.199 230.228 406.974 229.89 406.805 229.609C406.636 229.328 406.411 229.047 406.186 228.766C406.018 228.485 405.793 228.26 405.568 227.979C405.568 227.979 405.568 227.979 405.512 227.923C405.287 227.698 405.118 227.417 404.893 227.192C404.893 227.192 404.837 227.136 404.781 227.079C404.556 226.855 404.331 226.63 404.162 226.405C404.162 226.405 404.106 226.349 404.049 226.292C403.825 226.067 403.6 225.899 403.431 225.674C403.431 225.674 403.318 225.561 403.262 225.505C403.037 225.337 402.812 225.112 402.644 224.943C402.587 224.887 402.531 224.831 402.419 224.774C402.194 224.606 402.025 224.437 401.8 224.268C401.744 224.212 401.631 224.156 401.575 224.1C401.35 223.931 401.182 223.819 400.957 223.65C400.844 223.594 400.788 223.537 400.675 223.481C400.45 223.369 400.282 223.2 400.057 223.088C399.944 223.031 399.832 222.975 399.719 222.863C399.551 222.75 399.326 222.638 399.157 222.525C399.045 222.469 398.876 222.357 398.763 222.301C398.595 222.188 398.37 222.132 398.201 222.019C398.032 221.963 397.864 221.851 397.695 221.795C397.526 221.738 397.357 221.626 397.189 221.57C397.02 221.513 396.795 221.401 396.626 221.345C396.458 221.289 396.289 221.232 396.12 221.176C395.895 221.064 395.67 221.007 395.446 220.951C395.333 220.951 395.221 220.839 395.108 220.839C394.771 220.726 394.377 220.614 394.04 220.501L393.815 220.445ZM66.3574 113.118H66.245C66.1887 113.174 66.245 113.287 66.245 113.343L77.5482 122.788C77.5482 122.788 77.6607 122.901 77.7732 122.957C78.6167 123.407 79.2915 123.913 79.7414 124.419C79.9101 124.587 79.9664 124.868 79.8539 125.093C78.7854 128.017 77.6045 130.997 76.3111 133.92C66.6386 156.353 57.3036 177.942 48.3622 198.631C42.4013 212.406 38.4648 221.345 36.6091 225.449C36.4966 225.674 36.2716 226.011 35.9905 226.461C35.9905 226.461 35.9905 226.573 35.9905 226.63C35.9905 226.742 36.1029 226.798 36.2154 226.742C50.1617 223.031 61.0151 221.232 73.4431 220.445C73.7805 220.389 74.0617 220.164 74.1741 219.883L80.8661 202.061C81.0348 201.611 80.8661 201.105 80.4725 200.824L76.8734 199.137C76.8734 199.137 76.7609 199.025 76.7609 198.912C76.7609 198.744 76.8734 198.631 76.9859 198.631C80.4725 198.181 83.6779 197.732 86.1522 197.394C89.2452 197.001 91.0447 196.776 91.4946 196.776C93.9127 196.663 101.279 195.933 113.539 194.527C114.157 194.471 117.981 194.077 125.011 193.29C125.123 193.29 125.292 193.346 125.348 193.515L131.253 213.642C131.253 213.642 131.253 213.699 131.253 213.755C131.478 214.205 131.253 214.43 132.434 214.205C145.143 211.956 164.263 212.124 164.263 212.124C164.319 212.124 164.432 212.124 164.488 212.124C164.488 212.124 164.713 211.9 164.656 211.731L132.546 113.512C132.546 113.512 132.209 113.118 131.984 113.118H66.1887H66.3574ZM498.637 113.118C498.637 113.118 498.412 113.174 498.3 113.287C498.131 113.455 498.187 113.736 498.356 113.849L510.503 123.744C510.953 124.081 511.121 124.643 510.953 125.206L484.972 210.494C484.972 210.494 484.972 210.606 484.972 210.663C484.972 210.831 485.084 210.831 485.309 210.831C498.412 211.562 515.283 214.654 515.395 214.654H515.508C515.508 214.654 515.845 214.654 515.901 214.43L520.512 197.9C520.512 197.9 520.569 197.732 520.681 197.619C521.187 197.113 521.187 196.663 520.737 196.157C519.95 195.202 517.982 195.033 516.801 193.684C516.801 193.684 516.745 193.571 516.745 193.515C516.745 193.403 516.857 193.29 516.97 193.234C519.275 193.065 522.2 193.965 524.168 193.965C525.911 193.965 527.373 194.077 528.61 194.358C531.366 194.921 534.909 194.527 537.72 195.314C538.058 195.427 539.52 195.483 541.938 195.483C542.332 195.483 542.782 195.483 543.175 195.595C544.75 195.933 546.268 196.101 547.73 196.157C549.699 196.157 551.217 196.888 553.354 196.832C555.435 196.776 557.796 197.563 560.158 197.394C560.327 197.394 560.496 197.507 560.552 197.675L568.762 218.871C568.931 219.265 569.1 219.377 569.718 219.377C588.838 219.546 606.946 226.124 606.946 226.124C607.002 226.124 607.115 226.124 607.171 226.124C607.283 226.067 607.34 225.899 607.283 225.73C606.215 223.65 604.921 220.895 603.347 217.353C601.491 213.193 588.276 182.439 563.757 125.093C563.589 124.7 563.701 124.194 564.039 123.913L576.635 113.455C576.635 113.455 576.748 113.343 576.748 113.287C576.748 113.118 576.635 113.006 576.466 113.006H498.693L498.637 113.118ZM158.977 113.118C158.977 113.118 158.92 113.118 158.864 113.118V113.23L172.586 124.419C172.586 124.419 172.811 124.7 172.811 124.868C172.811 150.168 172.811 176.873 172.811 205.041C172.811 207.346 172.586 210.157 172.192 211L172.08 211.169C172.08 211.337 172.136 211.45 172.304 211.506L203.74 211.9H203.852C203.852 211.9 204.021 211.9 204.021 211.787V176.255C204.021 176.255 204.134 175.974 204.302 175.974H213.694C214.425 175.974 215.099 176.367 215.493 176.93L236.019 209.538C236.019 209.538 236.413 209.876 236.637 209.819C247.322 209.313 257.894 208.976 267.511 209.257C268.185 209.257 268.467 209.145 268.748 209.145C268.86 209.145 268.973 209.145 269.085 209.032C269.254 208.92 269.254 208.695 269.141 208.526L247.997 176.986C247.997 176.986 247.828 176.367 248.109 176.199L264.586 163.605C264.586 163.605 264.755 163.38 264.755 163.268V127.623C264.755 127.623 264.643 127.23 264.53 127.117L247.322 113.118C247.322 113.118 246.985 112.949 246.76 112.949H158.92L158.977 113.118ZM365.641 113.118C365.641 113.118 365.472 113.118 365.416 113.23C365.303 113.343 365.36 113.512 365.416 113.624L376.044 122.282C376.607 122.732 376.944 123.463 376.944 124.25V205.041C376.944 205.041 376.944 205.097 376.944 205.153C377 205.322 377.282 205.322 377.788 205.322C393.477 205.884 406.13 206.952 406.186 206.952C406.186 207.008 406.299 207.064 406.411 207.064C406.58 207.064 406.693 206.952 406.693 206.783C406.58 182.608 406.524 172.376 406.524 171.87C406.524 167.091 406.243 161.3 405.737 154.553C405.737 154.497 405.737 154.385 405.793 154.385C405.905 154.329 406.018 154.385 406.074 154.385C409.223 158.433 412.372 162.481 415.465 166.585C419.57 172.038 429.355 184.801 444.82 204.759C446.17 206.502 447.069 207.514 447.575 207.795C447.744 207.908 448.025 207.964 448.25 207.964L479.18 210.213H479.517C479.798 210.213 480.079 209.988 480.079 209.707V113.399C480.079 113.399 479.967 113.174 479.854 113.174H436.553C436.553 113.174 436.441 113.174 436.441 113.23C436.385 113.287 436.441 113.399 436.441 113.512L449.712 124.306C449.712 124.306 449.937 124.643 449.937 124.868C449.937 125.374 449.937 127.342 450.05 130.772C450.162 133.751 450.219 135.832 450.219 137.012C450.162 145.389 450.387 154.104 450.893 163.268C450.95 164.28 451.118 165.236 451.456 166.248C451.456 166.36 451.456 166.416 451.456 166.529C451.343 166.697 451.175 166.81 450.95 166.697C450.725 166.585 450.556 166.416 450.331 166.191C431.998 142.016 418.614 124.475 410.348 113.624C410.179 113.399 409.842 113.23 409.561 113.23H365.641V113.118ZM267.623 113.118C267.623 113.118 267.511 113.118 267.511 113.174C267.454 113.23 267.511 113.343 267.511 113.455L280.276 124.25C280.276 124.25 280.501 124.587 280.501 124.756V204.872C280.501 204.872 280.67 205.153 280.838 205.153L365.641 206.165H365.922C365.922 206.165 366.372 206.052 366.372 205.771V185.813C366.372 185.813 366.203 185.419 365.978 185.419H312.386C312.105 185.419 311.824 185.194 311.824 184.913V169.227C311.824 169.227 311.936 168.946 312.161 168.946H351.695C351.695 168.946 352.088 168.778 352.144 168.609L356.924 151.18C356.924 151.18 356.924 151.124 356.924 151.068C356.924 150.899 356.756 150.73 356.587 150.73H312.274C312.274 150.73 311.936 150.562 311.936 150.393L311.768 137.968C311.768 137.968 311.768 137.799 311.768 137.743C311.318 135.944 310.024 134.426 307.775 133.189C307.775 133.189 307.719 133.133 307.662 133.077C307.662 132.964 307.662 132.908 307.775 132.908C308.225 132.796 309.125 132.739 310.362 132.739C323.971 132.739 337.861 132.739 352.032 132.739C355.519 132.739 358.555 133.358 361.03 135.719C361.142 135.775 361.198 135.832 361.311 135.832C361.536 135.832 361.704 135.663 361.704 135.382V113.624C361.704 113.624 361.536 113.23 361.311 113.23H267.567L267.623 113.118ZM104.935 133.47C104.935 133.47 105.272 133.47 105.328 133.695C107.24 140.554 109.377 147.245 111.795 153.766C113.876 159.445 115.732 164.73 117.306 169.621C117.7 170.801 118.431 171.701 118.6 172.601V172.713C118.6 172.713 118.375 173.107 118.15 173.107C116.126 173.05 114.214 173.107 112.526 173.331C108.14 173.837 105.722 173.669 102.179 174.231C98.8051 174.793 94.3063 174.512 90.4823 175.355C90.4823 175.355 90.3698 175.355 90.3136 175.355C90.2011 175.355 90.1449 175.187 90.2011 175.018C91.1009 172.825 92.0007 170.464 92.8442 167.99C94.3063 163.886 96.387 158.095 99.1425 150.73C100.942 145.895 102.011 142.353 103.923 136.338C104.26 135.382 104.147 134.314 104.766 133.527C104.766 133.527 104.879 133.414 104.935 133.414V133.47ZM536.371 133.92C536.371 133.92 536.708 134.089 536.708 134.257C536.764 135.101 536.933 136 537.271 136.956C537.833 138.755 538.845 141.566 540.251 145.389C543.738 154.947 547.393 164.617 551.273 174.456V174.568C551.273 174.737 551.104 174.849 550.936 174.849L524.449 172.769H524.336C524.055 172.657 523.887 172.376 523.943 172.038C526.361 164.448 528.779 157.252 531.141 150.393C532.378 146.795 533.671 142.41 534.965 137.181C535.246 136 535.415 135.044 535.415 134.426C535.415 134.089 535.696 133.864 535.977 133.864H536.258L536.371 133.92ZM201.547 134.089C218.305 134.089 228.315 134.089 231.576 134.145C232.532 134.145 233.432 134.763 234.276 135.944C234.782 136.619 235.007 138.474 235.119 141.454C235.175 144.546 235.175 148.819 235.119 154.216C235.119 154.441 235.119 154.666 235.007 154.891C234.388 157.027 232.476 157.871 230.17 157.871C223.254 157.871 214.65 157.871 204.358 157.871C204.19 157.871 204.021 157.758 204.021 157.533C204.021 150.955 204.021 145.164 204.021 140.104C204.021 137.35 203.121 136.169 201.434 134.37C201.434 134.37 201.378 134.257 201.378 134.201C201.378 134.089 201.49 133.976 201.603 133.976L201.547 134.089ZM233.095 57.4586L95.8809 65.0485L84.6901 82.1961L47.4062 85.8505L77.0984 40.9856L233.151 57.4586H233.095ZM594.293 85.8505L557.009 82.1961L545.762 65.0485L408.548 57.4586L564.601 40.9856L594.293 85.8505ZM368.565 70.2209L468.383 81.7463L353.775 84.6136L320.878 31.2593L287.755 85.0634L172.417 82.1961L273.696 70.7831L320.428 0L368.565 70.2209Z" fill="#F3F2E7"/>
</g>
<defs>
<clipPath id="clip0_3124_530">
<rect width="639" height="422" fill="white"/>
</clipPath>
</defs>
</svg>
